<svg xmlns="http://www.w3.org/2000/svg" width="210" height="70" viewBox="0 0 210 70">
    <g fill="none" fill-rule="evenodd">
        <path fill="#D82335" d="M0 70h209.276V0H0z"/>
        <path fill="#FFFFFE" d="M189.372 48.128c0 .45-.359.809-1.033.809-.943 0-1.482-.675-1.482-.675l-.808.81s.808 1.032 2.38 1.032c1.527 0 2.38-.853 2.38-1.976 0-2.245-3.099-1.572-3.099-2.74 0-.359.315-.674.854-.674.718 0 1.168.54 1.168.54l.808-.854s-.674-.853-2.066-.853c-1.348 0-2.2.853-2.2 1.842 0 2.245 3.098 1.571 3.098 2.739zm-7.642.628v-1.391h2.56v-1.213h-2.56v-1.258h3.28v-1.212h-4.627v6.287h4.716v-1.213h-3.369zm-4.587 1.213h1.347v-6.287h-1.347v6.287zm-4.229-3.413v.988h1.124v.854s-.45.493-1.393.493a2.033 2.033 0 0 1-2.065-2.065c0-1.168.898-2.066 2.065-2.066 1.168 0 1.752.898 1.752.898l.854-.853s-.854-1.258-2.606-1.258c-1.93 0-3.413 1.482-3.413 3.279 0 1.796 1.482 3.278 3.413 3.278 1.797 0 2.74-1.213 2.74-1.213v-2.335h-2.47zm-11.682.27c0 1.796 1.481 3.278 3.412 3.278 1.932 0 3.413-1.482 3.413-3.278 0-1.797-1.481-3.279-3.413-3.279-1.93 0-3.412 1.482-3.412 3.279zm1.392 0c0-1.168.898-2.066 2.02-2.066 1.123 0 2.021.898 2.021 2.066 0 1.167-.898 2.065-2.02 2.065-1.123 0-2.021-.898-2.021-2.065zm-1.762 3.143v-1.213h-2.92v-5.074h-1.347v6.287h4.267zm-12.406-3.143c0 1.796 1.482 3.278 3.413 3.278 1.931 0 3.414-1.482 3.414-3.278 0-1.797-1.483-3.279-3.414-3.279-1.93 0-3.413 1.482-3.413 3.279zm1.392 0c0-1.168.898-2.066 2.021-2.066 1.123 0 2.02.898 2.02 2.066 0 1.167-.897 2.065-2.02 2.065s-2.02-.898-2.02-2.065zm-4.052-3.144v3.997l-3.099-3.997h-1.168v6.287h1.347v-3.997l3.1 3.997h1.167v-6.287h-1.347zm-6.16 0h-1.347v2.515h-2.695v-2.515h-1.347v6.287h1.347v-2.56h2.695v2.56h1.348v-6.287zm-9.393-.135c-1.93 0-3.413 1.482-3.413 3.279 0 1.796 1.482 3.278 3.413 3.278 1.752 0 2.65-1.258 2.65-1.258l-.808-.853s-.63.898-1.842.898a2.033 2.033 0 0 1-2.065-2.065c0-1.168.898-2.066 2.065-2.066 1.169 0 1.752.898 1.752.898l.854-.853s-.854-1.258-2.606-1.258zm-7.955 5.21v-1.392h2.56v-1.213h-2.56v-1.258h3.278v-1.212h-4.626v6.287h4.716v-1.213h-3.368zm-7.552-5.075v1.212h1.797v5.075h1.347v-5.075h1.796v-1.212h-4.94zM183.072 38.461V37.25h-2.92v-5.076h-1.347v6.288h4.267zm-7.418-1.482l.54 1.482h1.436l-2.47-6.288h-1.437l-2.47 6.288h1.438l.538-1.482h2.425zm-.448-1.167h-1.528l.764-2.067.764 2.067zm-6.474 2.65h1.347v-6.289h-1.347v6.288zm-4.004-6.423c-1.931 0-3.414 1.482-3.414 3.279 0 1.796 1.483 3.278 3.414 3.278 1.751 0 2.65-1.258 2.65-1.258l-.809-.853s-.629.898-1.841.898a2.033 2.033 0 0 1-2.066-2.065c0-1.168.898-2.067 2.066-2.067 1.168 0 1.751.899 1.751.899l.854-.854s-.854-1.257-2.605-1.257zm-6.294.134v3.998l-3.099-3.998h-1.167v6.288h1.347v-3.997l3.098 3.997h1.168v-6.288h-1.347zm-7.417 4.806l.539 1.482h1.437l-2.47-6.288h-1.437l-2.47 6.288h1.437l.54-1.482h2.424zm-.449-1.167h-1.527l.764-2.067.763 2.067zm-6.474-3.639v3.998l-3.099-3.998h-1.167v6.288h1.347v-3.997l3.1 3.997h1.166v-6.288h-1.347zm-7.506 6.288h1.347v-6.288h-1.347v6.288zm-6.07-6.288v6.288h1.347v-2.47h2.56V34.78h-2.56v-1.392h3.279v-1.214h-4.626zm-7.863 0v6.288h1.347v-2.47h2.56V34.78h-2.56v-1.392h3.279v-1.214h-4.626zm-8.36 3.145c0 1.796 1.481 3.278 3.412 3.278 1.932 0 3.414-1.482 3.414-3.278 0-1.797-1.482-3.28-3.414-3.28-1.93 0-3.412 1.483-3.412 3.28zm1.392 0c0-1.168.898-2.067 2.02-2.067 1.123 0 2.022.899 2.022 2.067 0 1.167-.899 2.065-2.022 2.065-1.122 0-2.02-.898-2.02-2.065zM150.885 22.735c0 .45-.36.809-.853.809h-1.392v-1.662h1.392c.494 0 .853.36.853.853zm-3.593 4.222h1.348v-2.2h1.167l1.213 2.2h1.437l-1.347-2.38s1.122-.494 1.122-1.842c0-1.15-.897-2.066-2.155-2.066h-2.785v6.288zm-4.902-1.213v-1.392h2.56v-1.213h-2.56v-1.257h3.279v-1.213h-4.626v6.288h4.716v-1.213h-3.37zm-7.551-5.075v1.213h1.796v5.075h1.347v-5.075h1.797v-1.213h-4.94zm-2.612 0v3.998l-3.098-3.998h-1.168v6.288h1.347V22.96l3.099 3.997h1.168V20.67h-1.348zm-9.168 5.075v-1.392h2.56v-1.213h-2.56v-1.257h3.278v-1.213h-4.626v6.288h4.716v-1.213h-3.368zm-5.352-5.21c-1.93 0-3.412 1.482-3.412 3.279 0 1.796 1.481 3.279 3.412 3.279 1.753 0 2.65-1.258 2.65-1.258l-.808-.853s-.63.898-1.842.898a2.033 2.033 0 0 1-2.065-2.066c0-1.167.898-2.066 2.065-2.066 1.169 0 1.753.899 1.753.899l.853-.854s-.853-1.257-2.606-1.257zM72.005 33.322h-13.36v-6.125H73.48v-6.53h-22.09v29.3h7.253V39.851h13.361v-6.53M101.858 20.668h-23.95v6.529h8.32v22.77h7.268v-22.77h8.362v-6.53M18.878 35.232c0 8.806 6.023 15.41 15.575 15.41 5.441 0 9.345-2.285 11.962-4.984l-3.738-5.317c-2.035 2.036-4.943 3.656-7.892 3.656-5.731 0-8.39-4.528-8.39-8.93 0-4.278 2.45-8.473 8.39-8.473 2.659 0 5.524 1.37 7.435 3.032l3.364-5.483c-2.907-2.866-7.144-4.195-11.13-4.195-9.18 0-15.576 6.646-15.576 15.284"/>
    </g>
</svg>